<svg xmlns="http://www.w3.org/2000/svg" width="720" height="480">
<rect id="datacube" x="576" y="424.50103759765625" width="18" height="16.9979248046875" fill="#FFFFFF" stroke="#000000" stroke-width="1.5"/>
<rect id="staticbox_1" x="-153.1362579345705" y="-90.38609619140601" width="159.172515869141" height="560.872192382812" fill="#003300" stroke="#00FF00" stroke-width="1.5"/>
<rect id="staticbox_2" x="673.8637420654295" y="-87.78421630859398" width="159.172515869141" height="555.768432617188" fill="#003300" stroke="#00FF00" stroke-width="1.5"/>
<rect id="staticbox_3" x="-181.15986328125" y="-149.5291229248047" width="1042.7197265625" height="79.8582458496094" fill="#003300" stroke="#00FF00" stroke-width="1.5"/>
<rect id="escapehatch" x="336.5" y="365.0301239013672" width="37" height="83.93975219726562" fill="#444444" stroke="#AAAAAA" stroke-width="1.5"/>
<rect id="staticbox_4" x="-176.93393554687498" y="449.348291015625" width="1037.06787109375" height="136.00341796875" fill="#003300" stroke="#00FF00" stroke-width="1.5"/>
<rect id="star_1" x="345.5" y="245" width="25" height="24" fill="#997700" stroke="#FFEE00" stroke-width="1.5"/>
<rect id="pacenemy" x="209" y="318.5" width="34" height="41" fill="#553300" stroke="#FF8800" stroke-width="1.5"/>
<rect id="star_2" x="345.5" y="105" width="25" height="24" fill="#997700" stroke="#FFEE00" stroke-width="1.5"/>
<rect id="star_3" x="409.5" y="178" width="25" height="24" fill="#997700" stroke="#FFEE00" stroke-width="1.5"/>
<rect id="star_4" x="279.5" y="178" width="25" height="24" fill="#997700" stroke="#FFEE00" stroke-width="1.5"/>
<rect id="star_5" x="345.5" y="-38" width="25" height="24" fill="#997700" stroke="#FFEE00" stroke-width="1.5"/>
<rect id="staticbox_5" x="335.99552612304694" y="163.9125518798828" width="45.10894775390619" height="48.1748962402344" fill="#003300" stroke="#00FF00" stroke-width="1.5"/>
<rect id="staticbox_6" x="82.03919677734375" y="13.132571411132808" width="9.0216064453125" height="9.63485717773438" fill="#003300" stroke="#00FF00" stroke-width="1.5"/>
<rect id="staticbox_7" x="577.0391967773437" y="23.13257141113281" width="9.0216064453125" height="9.63485717773438" fill="#003300" stroke="#00FF00" stroke-width="1.5"/>
<rect id="staticbox_8" x="174.03919677734376" y="179.1325714111328" width="9.0216064453125" height="9.63485717773438" fill="#003300" stroke="#00FF00" stroke-width="1.5"/>
<rect id="staticbox_9" x="557.0391967773437" y="228.1325714111328" width="9.0216064453125" height="9.63485717773438" fill="#003300" stroke="#00FF00" stroke-width="1.5"/>
<rect id="staticbox_10" x="98.03919677734375" y="343.1825714111328" width="9.0216064453125" height="9.63485717773438" fill="#003300" stroke="#00FF00" stroke-width="1.5"/>
<rect id="staticbox_11" x="433.03919677734376" y="309.1325714111328" width="9.0216064453125" height="9.63485717773438" fill="#003300" stroke="#00FF00" stroke-width="1.5"/>
<rect id="staticbox_12" x="423.03919677734376" y="13.132571411132808" width="9.0216064453125" height="9.63485717773438" fill="#003300" stroke="#00FF00" stroke-width="1.5"/>
</svg>