<svg xmlns="http://www.w3.org/2000/svg" width="720" height="480">
<rect id="datacube" x="278" y="-42.14896240234375" width="18" height="16.9979248046875" fill="#FFFFFF" stroke="#000000" stroke-width="1.5"/>
<rect id="escapehatch" x="263.5" y="367.0301239013672" width="37" height="83.93975219726562" fill="#444444" stroke="#AAAAAA" stroke-width="1.5"/>
<rect id="badstaticbox_1" x="562.7045043945311" y="334.7981689453125" width="141.3909912109376" height="127.503662109375" fill="#330000" stroke="#FF0000" stroke-width="1.5"/>
<rect id="badstaticbox_2" x="562.7045043945311" y="-65.2018310546875" width="141.3909912109376" height="127.503662109375" fill="#330000" stroke="#FF0000" stroke-width="1.5"/>
<rect id="staticbox_1" x="685.9845581054688" y="-57.7926025390625" width="26.0308837890625" height="518.585205078125" fill="#003300" stroke="#00FF00" stroke-width="1.5"/>
<rect id="badstaticbox_3" x="-37.29549560546881" y="334.7981689453125" width="141.3909912109376" height="127.503662109375" fill="#330000" stroke="#FF0000" stroke-width="1.5"/>
<rect id="badstaticbox_4" x="-37.29549560546881" y="-65.2018310546875" width="141.3909912109376" height="127.503662109375" fill="#330000" stroke="#FF0000" stroke-width="1.5"/>
<rect id="staticbox_2" x="-48.01544189453125" y="-61.61521301269548" width="26.0308837890625" height="523.530426025391" fill="#003300" stroke="#00FF00" stroke-width="1.5"/>
<rect id="staticbox_3" x="-66.29537048339847" y="449.5027160644531" width="798.790740966797" height="25.9945678710938" fill="#003300" stroke="#00FF00" stroke-width="1.5"/>
<rect id="star_1" x="321.5" y="68" width="25" height="24" fill="#997700" stroke="#FFEE00" stroke-width="1.5"/>
<rect id="dumbboxbad_1000" x="328.1247192382813" y="-41.476196289062784" width="11.950561523437488" height="482.95239257812557" fill="#550000" stroke="#FF6600" stroke-width="1.5"/>
<rect id="star_2" x="177.5" y="159" width="25" height="24" fill="#997700" stroke="#FFEE00" stroke-width="1.5"/>
<rect id="motor_1" x="332" y="198" width="4" height="4" fill="#1A1A1A" stroke="#555555" stroke-width="1.5"/>
<rect id="staticbox_4" x="-67.801498413086" y="-75.4972839355469" width="802.602996826172" height="25.9945678710938" fill="#003300" stroke="#00FF00" stroke-width="1.5"/>
<rect id="star_3" x="468.5" y="155" width="25" height="24" fill="#997700" stroke="#FFEE00" stroke-width="1.5"/>
<rect id="star_4" x="406.5" y="285" width="25" height="24" fill="#997700" stroke="#FFEE00" stroke-width="1.5"/>
<rect id="star_5" x="238.5" y="289" width="25" height="24" fill="#997700" stroke="#FFEE00" stroke-width="1.5"/>
</svg>