<svg xmlns="http://www.w3.org/2000/svg" width="720" height="480">
<rect id="badstaticbox_1" x="-152.9239501953125" y="-88.95614013671897" width="157.847900390625" height="560.712280273438" fill="#330000" stroke="#FF0000" stroke-width="1.5"/>
<rect id="badstaticbox_2" x="675.0760498046875" y="-88.26950073242199" width="157.847900390625" height="554.039001464844" fill="#330000" stroke="#FF0000" stroke-width="1.5"/>
<rect id="badstaticbox_3" x="-181.04902954101595" y="-149.3160888671875" width="1045.198059082032" height="79.232177734375" fill="#330000" stroke="#FF0000" stroke-width="1.5"/>
<rect id="badstaticbox_4" x="-175.07594604492198" y="449.80534667968755" width="1034.751892089844" height="135.289306640625" fill="#330000" stroke="#FF0000" stroke-width="1.5"/>
<rect id="badstaticbox_5" x="335.7190551757812" y="163.3094482421875" width="46.5618896484376" height="49.381103515625" fill="#330000" stroke="#FF0000" stroke-width="1.5"/>
<rect id="badstaticbox_6" x="323.1933837890625" y="150.99644775390624" width="9.813232421875" height="10.4071044921875" fill="#330000" stroke="#FF0000" stroke-width="1.5"/>
<rect id="badstaticbox_7" x="383.1933837890625" y="150.99644775390624" width="9.813232421875" height="10.4071044921875" fill="#330000" stroke="#FF0000" stroke-width="1.5"/>
<rect id="badstaticbox_8" x="323.1933837890625" y="213.99644775390624" width="9.813232421875" height="10.4071044921875" fill="#330000" stroke="#FF0000" stroke-width="1.5"/>
<rect id="badstaticbox_9" x="383.1933837890625" y="213.99644775390624" width="9.813232421875" height="10.4071044921875" fill="#330000" stroke="#FF0000" stroke-width="1.5"/>
<rect id="datacube" x="563.05" y="0.50103759765625" width="18" height="16.9979248046875" fill="#FFFFFF" stroke="#000000" stroke-width="1.5"/>
<rect id="escapehatch" x="336.5" y="365.0301239013672" width="37" height="83.93975219726562" fill="#444444" stroke="#AAAAAA" stroke-width="1.5"/>
<rect id="star_1" x="345.5" y="245" width="25" height="24" fill="#997700" stroke="#FFEE00" stroke-width="1.5"/>
<rect id="pacenemy" x="209" y="318.5" width="34" height="41" fill="#553300" stroke="#FF8800" stroke-width="1.5"/>
<rect id="star_2" x="345.5" y="105" width="25" height="24" fill="#997700" stroke="#FFEE00" stroke-width="1.5"/>
<rect id="star_3" x="409.5" y="178" width="25" height="24" fill="#997700" stroke="#FFEE00" stroke-width="1.5"/>
<rect id="star_4" x="279.5" y="178" width="25" height="24" fill="#997700" stroke="#FFEE00" stroke-width="1.5"/>
<rect id="star_5" x="345.5" y="-38" width="25" height="24" fill="#997700" stroke="#FFEE00" stroke-width="1.5"/>
</svg>